<?xml version="1.0" encoding="UTF-8"?>
<svg xmlns="http://www.w3.org/2000/svg" xmlns:xlink="http://www.w3.org/1999/xlink" viewBox="0 0 24 24" width="24px" height="24px">
<g id="surface30235368">
<path style="fill-rule:nonzero;fill:rgb(14.901961%,40.000001%,29.019609%);fill-opacity:1;stroke-width:10;stroke-linecap:butt;stroke-linejoin:round;stroke:rgb(100%,100%,100%);stroke-opacity:1;stroke-miterlimit:10;" d="M 86.000001 169.332646 C 39.964121 169.332646 2.667356 132.035881 2.667356 86.000001 C 2.667356 39.964121 39.964121 2.667356 86.000001 2.667356 C 132.035881 2.667356 169.332646 39.964121 169.332646 86.000001 C 169.332646 132.035881 132.035881 169.332646 86.000001 169.332646 Z M 86.000001 169.332646 " transform="matrix(0.13186,0,0,0.13186,0.66,0.66)"/>
<path style="fill-rule:nonzero;fill:rgb(100%,100%,100%);fill-opacity:1;stroke-width:10;stroke-linecap:butt;stroke-linejoin:round;stroke:rgb(100%,100%,100%);stroke-opacity:1;stroke-miterlimit:10;" d="M 128.392114 67.484927 C 128.36249 67.514551 125.874064 68.610643 124.540979 69.173501 L 124.540979 69.203126 C 124.540979 69.203126 124.600227 69.203126 124.748347 69.173501 C 124.748347 69.173501 124.452106 69.23275 123.948496 69.440118 C 123.800376 69.528991 123.681879 69.558615 123.681879 69.558615 C 123.622631 69.558615 123.622631 69.558615 123.593007 69.558615 C 120.689843 70.713956 112.39509 74.890956 99.982585 88.014441 C 84.548419 104.278082 81.645255 112.365466 81.586007 112.424714 C 80.904652 115.26863 78.623595 117.401566 75.720432 117.905176 C 75.27607 117.994048 74.861332 118.023673 74.446594 118.023673 C 71.987793 118.023673 69.677111 116.809084 68.284778 114.735395 C 68.22553 114.616899 62.537699 106.144401 56.316634 99.893712 C 50.184441 93.76152 43.074653 89.347526 42.985781 89.317902 C 39.549383 87.184965 38.453291 82.652475 40.586227 79.186453 C 42.719164 75.690807 47.251654 74.624339 50.717676 76.727652 C 51.073165 76.93502 59.367918 82.030369 66.773948 89.466022 C 69.203126 91.835952 71.484183 94.502123 73.498623 96.960924 C 76.7869 92.102569 81.763752 85.763008 89.317902 77.79412 C 107.507111 58.597691 119.030893 55.220542 121.608191 54.687307 C 125.933312 53.828208 129.932568 52.998733 131.88776 58.094081 C 133.368966 61.856344 132.124753 65.885224 128.392114 67.484927 Z M 128.392114 67.484927 " transform="matrix(0.13186,0,0,0.13186,0.66,0.66)"/>
<path style=" stroke:none;fill-rule:nonzero;fill:rgb(14.901961%,40.000001%,29.019609%);fill-opacity:1;" d="M 22.988281 12 C 22.988281 5.929688 18.070312 1.011719 12 1.011719 C 5.929688 1.011719 1.011719 5.929688 1.011719 12 C 1.011719 18.070312 5.929688 22.988281 12 22.988281 C 18.070312 22.988281 22.988281 18.070312 22.988281 12 Z M 22.988281 12 "/>
<path style=" stroke:none;fill-rule:nonzero;fill:rgb(100%,100%,100%);fill-opacity:1;" d="M 18.050781 8.320312 C 17.792969 7.648438 17.265625 7.757812 16.695312 7.871094 C 16.355469 7.941406 14.835938 8.386719 12.4375 10.917969 C 11.441406 11.96875 10.785156 12.804688 10.351562 13.445312 C 10.085938 13.121094 9.785156 12.769531 9.464844 12.457031 C 8.488281 11.476562 7.394531 10.804688 7.347656 10.777344 C 6.890625 10.5 6.292969 10.640625 6.011719 11.101562 C 5.730469 11.558594 5.875 12.15625 6.328125 12.4375 C 6.339844 12.441406 7.277344 13.023438 8.085938 13.832031 C 8.90625 14.65625 9.65625 15.773438 9.664062 15.789062 C 9.847656 16.0625 10.152344 16.222656 10.476562 16.222656 C 10.53125 16.222656 10.585938 16.21875 10.644531 16.207031 C 11.027344 16.140625 11.328125 15.859375 11.417969 15.484375 C 11.425781 15.476562 11.808594 14.410156 13.84375 12.265625 C 15.480469 10.535156 16.574219 9.984375 16.957031 9.832031 C 16.960938 9.832031 16.960938 9.832031 16.96875 9.832031 C 16.96875 9.832031 16.984375 9.828125 17.003906 9.816406 C 17.070312 9.789062 17.109375 9.78125 17.109375 9.78125 C 17.089844 9.785156 17.082031 9.785156 17.082031 9.785156 L 17.082031 9.78125 C 17.257812 9.707031 17.585938 9.5625 17.589844 9.558594 C 18.082031 9.347656 18.246094 8.816406 18.050781 8.320312 Z M 18.050781 8.320312 "/>
</g>
</svg>
