<?xml version="1.0" encoding="UTF-8"?>
<svg xmlns="http://www.w3.org/2000/svg" xmlns:xlink="http://www.w3.org/1999/xlink" viewBox="0 0 64 64" width="64px" height="64px">
<g id="surface30249140">
<path style="fill-rule:nonzero;fill:rgb(87.843138%,30.980393%,37.254903%);fill-opacity:1;stroke-width:10;stroke-linecap:butt;stroke-linejoin:round;stroke:rgb(100%,100%,100%);stroke-opacity:1;stroke-miterlimit:10;" d="M 86.000001 169.351161 C 39.97523 169.351161 2.648841 132.024772 2.648841 86.000001 C 2.648841 39.97523 39.97523 2.648841 86.000001 2.648841 C 132.024772 2.648841 169.351161 39.97523 169.351161 86.000001 C 169.351161 132.024772 132.024772 169.351161 86.000001 169.351161 Z M 86.000001 169.351161 " transform="matrix(0.351628,0,0,0.351628,1.76,1.76)"/>
<path style="fill-rule:nonzero;fill:rgb(100%,100%,100%);fill-opacity:1;stroke-width:10;stroke-linecap:butt;stroke-linejoin:round;stroke:rgb(100%,100%,100%);stroke-opacity:1;stroke-miterlimit:10;" d="M 120.027004 114.283628 C 122.682065 117.371942 122.348794 122.04885 119.26048 124.703911 C 117.882958 125.914797 116.172165 126.481358 114.450263 126.481358 C 112.406199 126.481358 110.317699 125.603744 108.873523 123.926278 L 85.966673 97.320117 L 63.059824 123.926278 C 61.615648 125.603744 59.560475 126.481358 57.483084 126.481358 C 55.761182 126.481358 54.050389 125.914797 52.672867 124.703911 C 49.584553 122.015523 49.251282 117.371942 51.906343 114.283628 L 76.257369 86.000001 L 51.906343 57.749701 C 49.251282 54.661386 49.584553 49.984479 52.672867 47.329417 C 55.761182 44.674355 60.438089 45.018736 63.093151 48.10705 L 86.000001 74.713212 L 108.940177 48.073723 C 111.595239 44.985409 116.238819 44.641028 119.327134 47.29609 C 122.415448 49.984479 122.748719 54.628059 120.093658 57.716374 L 95.742633 86.000001 Z M 120.027004 114.283628 " transform="matrix(0.351628,0,0,0.351628,1.76,1.76)"/>
<path style=" stroke:none;fill-rule:nonzero;fill:rgb(87.843138%,30.980393%,37.254903%);fill-opacity:1;" d="M 61.308594 32 C 61.308594 15.816406 48.183594 2.691406 32 2.691406 C 15.816406 2.691406 2.691406 15.816406 2.691406 32 C 2.691406 48.183594 15.816406 61.308594 32 61.308594 C 48.183594 61.308594 61.308594 48.183594 61.308594 32 Z M 61.308594 32 "/>
<path style=" stroke:none;fill-rule:nonzero;fill:rgb(100%,100%,100%);fill-opacity:1;" d="M 35.425781 32 L 43.988281 22.054688 C 44.921875 20.96875 44.804688 19.335938 43.71875 18.390625 C 42.632812 17.457031 41 17.578125 40.066406 18.664062 L 32 28.03125 L 23.945312 18.675781 C 23.011719 17.589844 21.367188 17.46875 20.28125 18.402344 C 19.195312 19.335938 19.078125 20.980469 20.011719 22.066406 L 28.574219 32 L 20.011719 41.945312 C 19.078125 43.03125 19.195312 44.664062 20.28125 45.609375 C 20.765625 46.035156 21.367188 46.234375 21.972656 46.234375 C 22.703125 46.234375 23.425781 45.925781 23.933594 45.335938 L 31.988281 35.980469 L 40.042969 45.335938 C 40.550781 45.925781 41.285156 46.234375 42.003906 46.234375 C 42.609375 46.234375 43.210938 46.035156 43.695312 45.609375 C 44.78125 44.675781 44.898438 43.03125 43.964844 41.945312 Z M 35.425781 32 "/>
</g>
</svg>
